HIERARCHY
ROOT Hips
{
  OFFSET 0.0000 0.0000 0.0000
  CHANNELS 6 Xposition Yposition Zposition Zrotation Xrotation Yrotation
  JOINT LeftHip
  {
    OFFSET 5.5000 0.0000 0.0000
    CHANNELS 3 Zrotation Xrotation Yrotation
    JOINT LeftKnee
    {
      OFFSET 0.0000 -17.5000 0.0000
      CHANNELS 3 Zrotation Xrotation Yrotation
      JOINT LeftAnkle
      {
        OFFSET 0.0000 -17.0000 0.0000
        CHANNELS 3 Zrotation Xrotation Yrotation
        End Site
        {
            OFFSET 0.0000 -4.7000 -2.0000
        }
      }
    }
  }
  JOINT RightHip
  {
    OFFSET -5.5000 -0.0000 0.0000
    CHANNELS 3 Zrotation Xrotation Yrotation
    JOINT RightKnee
    {
      OFFSET -0.0000 -17.5000 -0.0000
      CHANNELS 3 Zrotation Xrotation Yrotation
      JOINT RightAnkle
      {
        OFFSET 0.0000 -17.0000 0.0000
        CHANNELS 3 Zrotation Xrotation Yrotation
        End Site
        {
            OFFSET 0.0000 -4.7000 -2.0000
        }
      }
    }
  }
  JOINT Chest
  {
    OFFSET 0.0000 3.0000 -1.0000
    CHANNELS 3 Zrotation Xrotation Yrotation
    JOINT LeftCollar
    {
      OFFSET 0.0000 18.0000 1.0000
      CHANNELS 3 Zrotation Xrotation Yrotation
      JOINT LeftShoulder
      {
        OFFSET 6.5000 -0.0000 0.0000
        CHANNELS 3 Zrotation Xrotation Yrotation
        JOINT LeftElbow
        {
          OFFSET 0.0000 -11.0000 0.0000
          CHANNELS 3 Zrotation Xrotation Yrotation
          JOINT LeftWrist
          {
            OFFSET 0.0000 -10.5000 0.0000
            CHANNELS 3 Zrotation Xrotation Yrotation
            End Site
            {
                OFFSET 0.0000 -6.0000 0.0000
            }
          }
        }
      }
    }
    JOINT RightCollar
    {
      OFFSET 0.0000 18.0000 1.0000
      CHANNELS 3 Zrotation Xrotation Yrotation
      JOINT RightShoulder
      {
        OFFSET -6.5000 0.0000 -0.0000
        CHANNELS 3 Zrotation Xrotation Yrotation
        JOINT RightElbow
        {
          OFFSET 0.0000 -11.0000 0.0000
          CHANNELS 3 Zrotation Xrotation Yrotation
          JOINT RightWrist
          {
            OFFSET 0.0000 -10.5000 0.0000
            CHANNELS 3 Zrotation Xrotation Yrotation
            End Site
            {
                OFFSET 0.0000 -6.0000 0.0000
            }
          }
        }
      }
    }
    JOINT Neck
    {
      OFFSET 0.0000 18.0000 1.0000
      CHANNELS 3 Zrotation Xrotation Yrotation
      JOINT Head
      {
        OFFSET 0.0000 3.0000 0.0000
        CHANNELS 3 Zrotation Xrotation Yrotation
        End Site
        {
            OFFSET 0.0000 7.0000 0.0000
        }
      }
    }
  }
}
MOTION
Frames:	27
Frame Time:	0.033333
-0.7068 39.7427 0.6292 0.34 4.23 -0.60 -0.75 -11.97 1.99 0.00 23.79 -1.20 0.53 -13.03 1.45 1.53 -12.56 -2.17 -0.00 24.59 1.24 -1.21 -13.15 1.01 -0.06 5.19 1.22 0.00 0.00 0.00 12.18 -12.97 6.30 0.00 -11.40 1.09 -13.20 6.30 -10.97 0.00 0.00 0.00 -8.92 -10.23 -11.23 -0.00 -11.52 -1.10 10.23 3.86 19.72 0.00 0.00 0.00 -0.66 -12.93 3.00 
-0.7089 39.7375 0.6287 0.32 3.75 -0.30 -0.72 -11.60 2.04 -0.00 23.90 -0.84 0.45 -13.04 0.75 1.74 -12.08 -1.27 -0.00 24.64 1.58 -1.31 -13.20 -0.54 -0.10 4.44 1.53 0.00 0.00 0.00 11.43 -12.78 4.62 0.00 -10.69 -0.12 -12.54 6.01 -9.25 0.00 0.00 0.00 -9.56 -10.90 -7.96 0.00 -11.59 1.48 10.30 4.80 13.06 0.00 0.00 0.00 -0.87 -12.79 2.82 
-0.7107 39.7313 0.6283 0.30 3.34 -0.04 -0.70 -11.29 2.02 -0.00 24.04 -0.63 0.39 -13.07 0.30 1.89 -11.67 -0.65 -0.00 24.71 1.63 -1.34 -13.26 -1.48 -0.12 4.02 1.67 0.00 0.00 0.00 10.91 -12.36 3.06 0.00 -10.09 -0.86 -12.03 5.37 -7.81 0.00 0.00 0.00 -9.95 -11.06 -5.60 -0.00 -11.39 2.82 10.45 4.96 8.91 0.00 0.00 0.00 -0.96 -12.31 2.49 
-0.7123 39.7247 0.6277 0.29 2.99 0.18 -0.69 -11.04 1.95 -0.00 24.19 -0.50 0.36 -13.11 0.01 2.00 -11.32 -0.24 -0.00 24.77 1.53 -1.33 -13.32 -2.02 -0.14 3.84 1.70 0.00 0.00 0.00 10.55 -11.87 1.72 0.00 -9.64 -1.22 -11.63 4.67 -6.73 0.00 0.00 0.00 -10.19 -10.99 -3.87 -0.00 -11.12 3.38 10.51 4.76 6.38 0.00 0.00 0.00 -0.97 -11.71 2.18 
-0.7137 39.7187 0.6271 0.27 2.68 0.38 -0.68 -10.83 1.85 -0.00 24.32 -0.42 0.34 -13.14 -0.17 2.08 -11.02 0.03 0.00 24.83 1.34 -1.30 -13.38 -2.29 -0.14 3.80 1.67 0.00 0.00 0.00 10.34 -11.40 0.65 0.00 -9.34 -1.32 -11.34 4.05 -5.98 0.00 0.00 0.00 -10.31 -10.82 -2.55 -0.00 -10.87 3.47 10.47 4.44 4.89 0.00 0.00 0.00 -0.95 -11.23 1.92 
-0.7149 39.7137 0.6266 0.26 2.41 0.55 -0.69 -10.64 1.73 -0.00 24.43 -0.37 0.32 -13.17 -0.27 2.14 -10.75 0.19 0.00 24.87 1.11 -1.25 -13.43 -2.40 -0.14 3.85 1.59 0.00 0.00 0.00 10.22 -10.99 -0.17 0.00 -9.15 -1.25 -11.12 3.55 -5.51 0.00 0.00 0.00 -10.37 -10.64 -1.55 -0.00 -10.67 3.28 10.40 4.13 4.04 0.00 0.00 0.00 -0.90 -10.88 1.72 
-0.7159 39.7100 0.6264 0.25 2.18 0.70 -0.69 -10.47 1.61 -0.00 24.52 -0.33 0.31 -13.20 -0.33 2.17 -10.51 0.28 0.00 24.90 0.88 -1.20 -13.47 -2.41 -0.14 3.96 1.49 0.00 0.00 0.00 10.15 -10.67 -0.79 -0.00 -9.04 -1.07 -10.95 3.17 -5.28 0.00 0.00 0.00 -10.39 -10.49 -0.76 0.00 -10.52 2.95 10.31 3.88 3.60 0.00 0.00 0.00 -0.85 -10.67 1.59 
-0.7168 39.7075 0.6262 0.24 1.98 0.82 -0.70 -10.33 1.49 0.00 24.59 -0.31 0.31 -13.21 -0.36 2.20 -10.30 0.31 0.00 24.91 0.67 -1.16 -13.49 -2.36 -0.13 4.11 1.38 0.00 0.00 0.00 10.11 -10.42 -1.23 -0.00 -9.00 -0.85 -10.83 2.92 -5.22 0.00 0.00 0.00 -10.41 -10.38 -0.14 0.00 -10.42 2.55 10.22 3.69 3.40 0.00 0.00 0.00 -0.79 -10.57 1.52 
-0.7176 39.7058 0.6262 0.23 1.80 0.93 -0.71 -10.20 1.37 -0.00 24.65 -0.28 0.30 -13.22 -0.38 2.21 -10.11 0.31 0.00 24.91 0.48 -1.11 -13.51 -2.28 -0.12 4.26 1.27 0.00 0.00 0.00 10.09 -10.24 -1.54 -0.00 -9.02 -0.61 -10.75 2.78 -5.26 0.00 0.00 0.00 -10.41 -10.31 0.35 0.00 -10.36 2.12 10.15 3.56 3.36 0.00 0.00 0.00 -0.75 -10.56 1.46 
-0.7183 39.7050 0.6262 0.23 1.65 1.03 -0.72 -10.08 1.25 -0.00 24.68 -0.25 0.29 -13.22 -0.39 2.22 -9.94 0.29 0.00 24.90 0.32 -1.08 -13.53 -2.19 -0.11 4.42 1.16 0.00 0.00 0.00 10.08 -10.12 -1.74 0.00 -9.08 -0.37 -10.69 2.72 -5.36 0.00 0.00 0.00 -10.41 -10.29 0.75 0.00 -10.32 1.71 10.08 3.49 3.40 0.00 0.00 0.00 -0.70 -10.59 1.42 
-0.7197 39.7065 0.6138 0.22 1.52 1.11 -0.73 -9.98 1.15 -0.00 24.69 -0.23 0.29 -13.19 -0.39 2.23 -9.80 0.25 -0.00 24.86 0.18 -1.05 -13.50 -2.10 -0.10 4.58 1.06 0.00 0.00 0.00 10.07 -10.05 -1.88 0.00 -9.14 -0.15 -10.64 2.71 -5.50 0.00 0.00 0.00 -10.41 -10.29 1.06 -0.00 -10.29 1.33 10.03 3.46 3.50 0.00 0.00 0.00 -0.65 -10.62 1.42 
-0.7217 39.7094 0.5905 0.22 1.41 1.19 -0.74 -9.92 1.05 0.00 24.69 -0.20 0.28 -13.14 -0.40 2.23 -9.70 0.20 -0.00 24.82 0.07 -1.02 -13.46 -2.02 -0.08 4.72 0.96 0.00 0.00 0.00 10.13 -10.02 -1.95 0.00 -9.20 0.03 -10.66 2.71 -5.64 0.00 0.00 0.00 -10.36 -10.30 1.33 0.00 -10.23 0.97 9.93 3.41 3.63 0.00 0.00 0.00 -0.54 -10.65 1.45 
-0.7237 39.7125 0.5656 0.21 1.31 1.25 -0.75 -9.87 0.96 -0.00 24.69 -0.17 0.27 -13.09 -0.40 2.23 -9.62 0.14 -0.00 24.78 -0.01 -1.01 -13.40 -1.94 -0.07 4.85 0.88 0.00 0.00 0.00 10.18 -10.01 -1.98 0.00 -9.26 0.19 -10.67 2.74 -5.80 0.00 0.00 0.00 -10.31 -10.31 1.54 -0.00 -10.19 0.66 9.86 3.38 3.77 0.00 0.00 0.00 -0.44 -10.72 1.49 
-0.7267 39.7153 0.5458 0.21 1.22 1.30 -0.75 -9.83 0.88 0.00 24.68 -0.13 0.26 -13.04 -0.41 2.23 -9.54 0.09 -0.00 24.74 -0.08 -0.99 -13.36 -1.88 -0.05 4.98 0.81 0.00 0.00 0.00 10.21 -10.02 -2.00 0.00 -9.32 0.32 -10.67 2.77 -6.03 0.00 0.00 0.00 -10.28 -10.30 1.72 0.00 -10.12 0.39 9.79 3.31 3.89 0.00 0.00 0.00 -0.37 -10.73 1.51 
-0.7319 39.7167 0.5429 0.21 1.15 1.35 -0.75 -9.76 0.82 -0.00 24.67 -0.10 0.24 -13.02 -0.44 2.23 -9.45 0.04 -0.00 24.71 -0.12 -0.99 -13.35 -1.84 -0.04 5.09 0.75 0.00 0.00 0.00 10.23 -10.04 -1.99 0.00 -9.37 0.43 -10.65 2.81 -6.34 0.00 0.00 0.00 -10.25 -10.36 1.87 0.00 -10.16 0.16 9.74 3.40 3.98 0.00 0.00 0.00 -0.30 -10.73 1.53 
-0.7407 39.7183 0.5378 0.20 1.08 1.40 -0.74 -9.71 0.77 0.00 24.66 -0.05 0.22 -13.00 -0.49 2.25 -9.37 0.01 -0.00 24.67 -0.14 -1.00 -13.33 -1.84 -0.02 5.19 0.70 0.00 0.00 0.00 10.25 -10.11 -1.96 -0.00 -9.42 0.52 -10.63 2.91 -6.71 0.00 0.00 0.00 -10.23 -10.49 2.00 0.00 -10.26 -0.03 9.71 3.58 4.03 0.00 0.00 0.00 -0.24 -10.72 1.54 
-0.7498 39.7196 0.5347 0.21 1.03 1.45 -0.73 -9.66 0.74 -0.00 24.65 -0.01 0.19 -12.98 -0.55 2.26 -9.30 -0.01 -0.00 24.64 -0.15 -1.02 -13.31 -1.86 -0.01 5.28 0.68 0.00 0.00 0.00 10.31 -10.20 -1.92 -0.00 -9.50 0.59 -10.66 3.02 -7.05 0.00 0.00 0.00 -10.17 -10.66 2.12 -0.00 -10.37 -0.21 9.63 3.79 4.09 0.00 0.00 0.00 -0.13 -10.72 1.56 
-0.7557 39.7221 0.5191 0.21 0.98 1.50 -0.72 -9.64 0.72 0.00 24.64 0.04 0.17 -12.94 -0.63 2.27 -9.25 -0.02 -0.00 24.61 -0.15 -1.03 -13.28 -1.91 0.00 5.35 0.68 0.00 0.00 0.00 10.37 -10.27 -1.82 0.00 -9.58 0.68 -10.69 3.12 -7.46 0.00 0.00 0.00 -10.10 -10.87 2.28 -0.00 -10.51 -0.33 9.56 4.03 4.04 0.00 0.00 0.00 -0.06 -10.70 1.64 
-0.7573 39.7226 0.5228 0.21 0.94 1.55 -0.72 -9.59 0.72 0.00 24.63 0.09 0.15 -12.93 -0.74 2.28 -9.19 -0.02 0.00 24.59 -0.13 -1.03 -13.28 -1.99 0.01 5.42 0.71 0.00 0.00 0.00 10.41 -10.33 -1.72 0.00 -9.65 0.73 -10.71 3.19 -7.84 0.00 0.00 0.00 -10.05 -11.13 2.45 -0.00 -10.67 -0.41 9.50 4.30 3.92 0.00 0.00 0.00 -0.02 -10.65 1.72 
-0.7631 39.7226 0.5306 0.21 0.90 1.61 -0.71 -9.55 0.73 0.00 24.62 0.14 0.13 -12.93 -0.86 2.29 -9.13 0.00 -0.00 24.58 -0.12 -1.05 -13.30 -2.09 0.02 5.48 0.76 0.00 0.00 0.00 10.45 -10.37 -1.61 0.00 -9.70 0.79 -10.74 3.22 -8.22 0.00 0.00 0.00 -10.02 -11.38 2.64 -0.00 -10.78 -0.44 9.45 4.47 3.73 0.00 0.00 0.00 0.05 -10.61 1.82 
-0.7754 39.7226 0.5382 0.22 0.86 1.67 -0.68 -9.51 0.75 0.00 24.61 0.17 0.10 -12.93 -0.98 2.31 -9.07 0.02 0.00 24.56 -0.10 -1.08 -13.31 -2.18 0.03 5.53 0.80 0.00 0.00 0.00 10.47 -10.41 -1.56 0.00 -9.74 0.81 -10.75 3.23 -8.49 0.00 0.00 0.00 -10.02 -11.59 2.78 -0.00 -10.82 -0.48 9.42 4.56 3.64 0.00 0.00 0.00 0.13 -10.61 1.88 
-0.7882 39.7232 0.5410 0.23 0.84 1.73 -0.67 -9.47 0.75 0.00 24.60 0.19 0.08 -12.92 -1.06 2.33 -9.02 0.02 -0.00 24.55 -0.11 -1.10 -13.31 -2.26 0.04 5.58 0.83 0.00 0.00 0.00 10.47 -10.46 -1.56 -0.00 -9.76 0.82 -10.73 3.23 -8.66 0.00 0.00 0.00 -10.04 -11.75 2.88 -0.00 -10.81 -0.51 9.43 4.57 3.61 0.00 0.00 0.00 0.18 -10.65 1.87 
-0.7917 39.7244 0.5349 0.24 0.81 1.79 -0.66 -9.46 0.75 0.00 24.58 0.19 0.07 -12.89 -1.13 2.33 -8.99 0.02 0.00 24.54 -0.11 -1.10 -13.31 -2.31 0.05 5.62 0.86 0.00 0.00 0.00 10.45 -10.50 -1.54 0.00 -9.78 0.84 -10.70 3.22 -8.84 0.00 0.00 0.00 -10.07 -11.90 2.98 -0.00 -10.78 -0.53 9.44 4.54 3.58 0.00 0.00 0.00 0.21 -10.69 1.90 
-0.7986 39.7255 0.5279 0.24 0.79 1.85 -0.66 -9.45 0.75 0.00 24.57 0.19 0.06 -12.86 -1.18 2.34 -8.97 0.01 0.00 24.53 -0.12 -1.11 -13.30 -2.35 0.05 5.66 0.90 0.00 0.00 0.00 10.48 -10.50 -1.49 -0.00 -9.74 0.87 -10.71 3.16 -9.04 0.00 0.00 0.00 -10.05 -12.02 3.10 -0.00 -10.74 -0.56 9.41 4.49 3.55 0.00 0.00 0.00 0.27 -10.74 1.96 
-0.8039 39.7263 0.5276 0.25 0.77 1.90 -0.66 -9.43 0.74 0.00 24.55 0.19 0.05 -12.84 -1.22 2.34 -8.94 -0.00 -0.00 24.52 -0.14 -1.12 -13.30 -2.38 0.05 5.69 0.93 0.00 0.00 0.00 10.51 -10.51 -1.46 -0.00 -9.74 0.88 -10.71 3.15 -9.16 0.00 0.00 0.00 -10.03 -12.14 3.18 0.00 -10.70 -0.62 9.38 4.47 3.61 0.00 0.00 0.00 0.32 -10.73 1.98 
-0.8117 39.7253 0.5321 0.26 0.75 1.95 -0.65 -9.42 0.73 0.00 24.55 0.19 0.04 -12.84 -1.28 2.35 -8.91 -0.00 0.00 24.53 -0.14 -1.14 -13.32 -2.44 0.05 5.72 0.96 0.00 0.00 0.00 10.53 -10.57 -1.44 0.00 -9.76 0.89 -10.70 3.19 -9.25 0.00 0.00 0.00 -10.02 -12.27 3.22 0.00 -10.70 -0.68 9.36 4.49 3.70 0.00 0.00 0.00 0.40 -10.75 1.89 
-0.8212 39.7246 0.5337 0.27 0.74 2.01 -0.64 -9.41 0.72 -0.00 24.56 0.19 0.02 -12.84 -1.33 2.36 -8.90 -0.01 0.00 24.54 -0.14 -1.15 -13.34 -2.48 0.05 5.75 0.98 0.00 0.00 0.00 10.53 -10.60 -1.46 0.00 -9.74 0.89 -10.67 3.17 -9.29 0.00 0.00 0.00 -10.01 -12.39 3.22 -0.00 -10.70 -0.74 9.35 4.48 3.83 0.00 0.00 0.00 0.51 -10.76 1.70 
